HIERARCHY
ROOT root
{
	OFFSET 0.000000 0.000000 0.000000
	CHANNELS 6 Xposition Yposition Zposition Zrotation Yrotation Xrotation
	JOINT lhip
	{
		OFFSET 0.058581 -0.082280 -0.017664
		CHANNELS 3 Zrotation Yrotation Xrotation
		JOINT lknee
		{
			OFFSET 0.043451 -0.386469 0.008037
			CHANNELS 3 Zrotation Yrotation Xrotation
			JOINT lankle
			{
				OFFSET -0.014790 -0.426874 -0.037428
				CHANNELS 3 Zrotation Yrotation Xrotation
				JOINT ltoe
				{
					OFFSET 0.041054 -0.060286 0.122042
					CHANNELS 3 Zrotation Yrotation Xrotation
					End Site
					{
						OFFSET 0.000000 0.000000 0.000000
					}
				}
			}
		}
	}
	JOINT rhip
	{
		OFFSET -0.060310 -0.090513 -0.013543
		CHANNELS 3 Zrotation Yrotation Xrotation
		JOINT rknee
		{
			OFFSET -0.043257 -0.383688 -0.004843
			CHANNELS 3 Zrotation Yrotation Xrotation
			JOINT rankle
			{
				OFFSET 0.019056 -0.420046 -0.034562
				CHANNELS 3 Zrotation Yrotation Xrotation
				JOINT rtoe
				{
					OFFSET -0.034840 -0.062106 0.130323
					CHANNELS 3 Zrotation Yrotation Xrotation
					End Site
					{
						OFFSET 0.000000 0.000000 0.000000
					}
				}
			}
		}
	}
	JOINT lowerback
	{
		OFFSET 0.004439 0.124404 -0.038385
		CHANNELS 3 Zrotation Yrotation Xrotation
		JOINT upperback
		{
			OFFSET 0.004488 0.137956 0.026820
			CHANNELS 3 Zrotation Yrotation Xrotation
			JOINT chest
			{
				OFFSET -0.002265 0.056032 0.002855
				CHANNELS 3 Zrotation Yrotation Xrotation
				JOINT lowerneck
				{
					OFFSET -0.013390 0.211636 -0.033468
					CHANNELS 3 Zrotation Yrotation Xrotation
					JOINT upperneck
					{
						OFFSET 0.010113 0.088937 0.050410
						CHANNELS 3 Zrotation Yrotation Xrotation
						End Site
						{
							OFFSET 0.000000 0.000000 0.000000
						}
					}
				}
				JOINT lclavicle
				{
					OFFSET 0.071702 0.114000 -0.018898
					CHANNELS 3 Zrotation Yrotation Xrotation
					JOINT lshoulder
					{
						OFFSET 0.122921 0.045205 -0.019046
						CHANNELS 3 Zrotation Yrotation Xrotation
						JOINT lelbow
						{
							OFFSET 0.255332 -0.015649 -0.022946
							CHANNELS 3 Zrotation Yrotation Xrotation
							JOINT lwrist
							{
								OFFSET 0.265709 0.012698 -0.007375
								CHANNELS 3 Zrotation Yrotation Xrotation
								End Site
								{
									OFFSET 0.000000 0.000000 0.000000
								}
							}
						}
					}
				}
				JOINT rclavicle
				{
					OFFSET -0.082954 0.112472 -0.023707
					CHANNELS 3 Zrotation Yrotation Xrotation
					JOINT rshoulder
					{
						OFFSET -0.113228 0.046853 -0.008472
						CHANNELS 3 Zrotation Yrotation Xrotation
						JOINT relbow
						{
							OFFSET -0.260127 -0.014369 -0.031269
							CHANNELS 3 Zrotation Yrotation Xrotation
							JOINT rwrist
							{
								OFFSET -0.269108 0.006794 -0.006027
								CHANNELS 3 Zrotation Yrotation Xrotation
								End Site
								{
									OFFSET 0.000000 0.000000 0.000000
								}
							}
						}
					}
				}
			}
		}
	}
}
MOTION
Frames: 14
Frame Time: 0.033333
-1.536083 -0.244024 1.001099 -94.807173 -1.479870 79.907365 -0.961181 6.342824 10.537511 0.019274 -8.153421 0.148922 1.973874 12.814905 -7.275609 0.000000 -0.000000 0.000000 0.970559 -2.835752 -15.319405 -3.026040 -14.270148 41.822475 -0.739768 -17.486163 -11.365410 0.000000 -0.000000 0.000000 -4.718091 -5.303703 14.515449 0.837126 -4.002632 0.686216 -1.041515 -3.409944 4.028477 6.441044 -18.603700 -3.262478 8.524069 -24.131290 0.595269 -19.362696 -6.925902 -1.325940 -43.768645 -18.471753 3.010525 7.605786 -20.834980 2.117375 -2.961591 2.989486 1.825147 19.261172 4.987217 -3.867175 54.939058 -2.768047 12.760769 -11.059547 24.317700 1.464243 7.232716 -0.808887 -0.206069 
-1.558337 -0.240805 1.000456 -96.726167 -1.308029 80.131691 -0.447515 7.293944 12.092374 0.138907 -7.083778 0.477618 1.219694 12.515930 -8.433958 0.000000 -0.000000 0.000000 2.219338 -3.232832 -16.039952 -3.485297 -17.338343 31.133595 -0.955528 -19.520808 -11.736420 0.000000 -0.000000 0.000000 -4.594221 -5.842048 14.582237 0.673730 -4.394406 0.792859 -0.737519 -3.852123 4.042243 6.262952 -19.164160 -3.897399 9.059300 -24.276626 0.093666 -18.911599 -7.613405 -1.073829 -43.601034 -19.894309 3.024099 7.764465 -22.805001 2.163766 -2.890646 2.184121 1.696258 19.109347 5.277117 -3.527350 55.044912 -3.100216 12.426473 -11.292569 24.138433 0.686718 6.558784 -0.420360 -0.763343 
-1.579790 -0.236444 0.999186 -99.182247 -1.559629 80.470329 -0.573528 8.227950 13.256415 0.512628 -5.736148 1.342950 -1.263772 12.513291 -11.108474 0.000000 -0.000000 0.000000 3.894472 -3.592696 -16.173980 -4.675074 -20.967954 20.346611 0.261893 -21.276094 -12.631598 0.000000 -0.000000 0.000000 -4.909454 -5.379113 14.338229 0.779264 -5.281274 1.056784 -0.483844 -3.531450 3.885488 5.073494 -18.929635 -1.931643 11.892609 -25.244362 -3.323417 -18.049880 -8.181429 -0.822729 -44.188717 -22.271172 4.660666 7.954937 -22.536518 3.866579 -2.210705 -1.165878 0.343054 18.353567 3.926337 -4.160712 56.154779 -3.740602 12.151312 -12.177828 25.457365 4.486114 9.159228 -0.314719 -3.873157 
-1.600592 -0.231667 0.997166 -101.880197 -2.218413 81.541790 -1.292524 8.970703 13.475394 0.711510 -4.025311 2.563943 -1.439255 12.307633 -12.416811 0.000000 -0.000000 0.000000 5.701603 -4.548120 -16.965800 -5.202291 -22.658733 10.997219 0.584181 -21.785968 -11.982097 0.000000 -0.000000 0.000000 -5.281431 -5.148941 13.503253 0.472458 -5.824722 0.896646 -0.248502 -3.684460 3.795039 4.859057 -18.751001 -1.615698 12.551252 -24.215092 -4.254968 -16.833403 -7.956085 -0.708288 -45.205908 -23.208807 5.506437 7.655661 -24.572828 6.100816 -1.989860 -1.868069 0.313754 17.231813 2.957271 -4.202778 57.299344 -4.076776 12.304785 -12.279075 27.607591 5.909402 9.541607 0.284368 -5.352933 
-1.620039 -0.225556 0.994564 -105.397196 -3.418894 82.733532 -2.635807 9.618238 13.467633 0.812067 -2.451376 4.059254 -1.566675 12.466198 -13.204522 0.000000 -0.000000 0.000000 7.273371 -5.185322 -18.312133 -6.882934 -22.981494 5.302257 0.453879 -21.844763 -11.249321 0.000000 -0.000000 0.000000 -5.942083 -4.750700 12.538534 -0.062252 -5.824218 0.955585 -0.262701 -3.700377 3.459439 4.724982 -18.251549 -1.417933 12.964820 -23.442877 -4.955235 -15.688497 -7.497346 -1.110349 -45.765769 -23.521542 6.418394 6.360256 -26.617681 8.005414 -3.220782 -2.112753 -0.566352 16.526671 2.427800 -4.032500 58.450021 -4.201990 12.869329 -13.102469 28.791044 6.100603 12.050676 -0.252271 -6.203920 
-1.640309 -0.218261 0.991679 -107.773587 -4.342581 83.390298 -3.245993 9.854446 13.126720 0.345294 -1.371731 7.286281 -2.386699 12.394295 -13.399560 0.000000 -0.000000 0.000000 7.628552 -4.906730 -18.791790 -7.320705 -22.640167 2.881852 0.516492 -21.960992 -10.984351 0.000000 -0.000000 0.000000 -6.196835 -4.725189 12.505096 -0.314800 -6.247509 0.424337 -0.612601 -3.777302 3.525816 4.186274 -18.251429 -1.597754 13.096233 -23.299932 -5.255973 -14.911675 -7.245038 -1.117871 -46.247131 -23.541782 7.074621 5.359850 -28.360052 9.797883 -1.783177 -2.495561 -0.465903 16.210286 2.022453 -3.830577 59.033442 -4.479448 13.331346 -13.017997 30.681053 6.767259 10.819492 0.059872 -7.430973 
-1.665316 -0.207113 0.989769 -110.327212 -4.768114 83.190137 -2.619758 10.160613 14.124466 -0.803477 -1.203427 10.784406 -2.781032 12.224934 -13.340071 0.000000 -0.000000 0.000000 7.600018 -3.729270 -17.711415 -7.232515 -22.086185 4.168699 -0.231456 -22.257894 -11.748132 0.000000 -0.000000 0.000000 -6.074820 -5.338409 12.083320 -0.610827 -6.258064 1.109460 -0.978688 -3.842996 3.468198 4.032911 -17.576695 -2.080903 12.754268 -22.406016 -5.410433 -14.464964 -6.981085 -0.526030 -47.184767 -22.469458 7.059918 5.413189 -29.578717 10.830705 -1.563947 -2.251781 -1.833141 15.710376 2.121900 -3.983336 60.172107 -4.424597 13.329708 -12.962584 31.236162 7.262621 10.144472 0.220222 -7.525798 
-1.691655 -0.193075 0.987988 -112.839157 -5.005518 82.943160 -1.390238 10.135124 14.316206 -2.358837 -0.216042 16.175201 -4.659318 11.448791 -11.305456 0.000000 -0.000000 0.000000 7.797760 -2.721569 -15.517177 -7.348355 -21.958685 5.959738 -0.922301 -21.916948 -12.186834 0.000000 -0.000000 0.000000 -6.078170 -6.017273 11.717758 -0.535304 -6.244587 1.508660 -1.259061 -3.530060 3.008505 3.634639 -17.040869 -1.976633 12.461808 -21.660543 -5.219827 -15.018982 -6.664073 0.378613 -48.362309 -20.635914 6.850649 6.085493 -29.397824 10.945349 -2.263305 -2.066478 -2.629344 15.403598 2.067898 -3.666529 60.780743 -4.583715 13.329732 -12.226786 31.683435 8.876079 9.618918 0.325296 -8.274608 
-1.719477 -0.175317 0.986329 -115.885345 -5.332342 82.982973 1.245780 10.395996 12.674051 -5.185398 2.118217 24.648799 -7.417568 8.862733 -6.657759 0.000000 -0.000000 0.000000 8.777540 -3.376947 -11.487730 -6.485093 -21.465962 2.621856 -2.363552 -20.692908 -10.240120 0.000000 -0.000000 0.000000 -6.016543 -5.433990 10.088972 -0.562236 -6.307216 2.569024 -1.444603 -3.469304 2.355182 3.038728 -16.907030 -0.962732 12.161512 -20.588579 -4.964050 -16.416180 -5.716735 1.342879 -48.731521 -18.521730 6.470978 5.302038 -28.416764 11.793863 -2.449322 -1.826310 -3.785453 15.850108 1.734080 -2.959779 60.682175 -4.546078 13.216784 -10.972855 31.611512 11.065792 9.041697 0.443013 -9.007067 
-1.742458 -0.157608 0.983869 -119.434736 -6.056978 84.101137 3.606079 9.478590 6.086934 -7.658151 4.828841 38.288882 -9.863260 5.851035 3.143578 0.000000 -0.000000 0.000000 9.744312 -3.742675 -10.790978 -6.343887 -16.924018 2.434823 -5.259379 -17.744275 -9.701016 0.000000 -0.000000 0.000000 -6.519248 -3.915405 8.689426 -0.138119 -6.391948 2.234394 -1.585699 -3.557174 2.201851 3.470437 -16.246514 -1.384635 11.746945 -19.717102 -4.110201 -18.277578 -3.801108 1.607077 -49.036192 -16.159782 7.171909 4.884001 -27.554976 13.111059 -1.923789 -0.963364 -4.444351 17.590726 0.492101 -2.097454 58.887959 -3.417300 13.519061 -8.880368 31.221428 14.298318 8.147597 0.170188 -10.025606 
-1.761223 -0.140658 0.981554 -123.469286 -6.333618 84.439714 5.564916 7.238857 -1.250011 -10.364998 4.499466 52.035272 -10.851699 2.813036 9.607477 0.000000 -0.000000 0.000000 10.617289 -3.386614 -9.333080 -6.472092 -14.378879 3.259769 -7.208791 -16.152840 -9.987315 0.000000 -0.000000 0.000000 -6.431544 -2.294926 8.928485 0.155273 -6.184690 2.030803 -1.804793 -3.351912 1.863921 4.053896 -15.942134 -2.578189 11.785714 -19.536850 -3.798781 -20.071527 -2.438739 1.960710 -49.004893 -13.602455 7.485592 4.850806 -27.037836 13.079156 -1.565801 -0.130117 -5.070767 19.073766 1.433490 -1.363116 58.270992 -2.210917 13.608564 -8.803599 28.948918 14.910195 7.303023 -0.347738 -10.313383 
-1.778578 -0.125707 0.980520 -127.931935 -6.378763 83.670956 6.142269 4.612792 -6.789894 -13.087465 3.088009 62.256005 -10.239433 1.718892 9.546470 0.000000 -0.000000 0.000000 10.817989 -2.364842 -6.756462 -5.965651 -12.190056 4.668147 -8.084504 -16.023213 -11.592145 0.000000 -0.000000 0.000000 -5.917420 -1.185692 10.569159 0.189037 -5.720291 2.207114 -2.065896 -2.311866 1.969954 4.788888 -15.290745 -4.667120 11.351153 -19.866262 -3.340822 -21.552778 -2.083516 1.902158 -49.385656 -11.099065 7.407937 5.308439 -26.213087 11.994617 -1.824733 0.324432 -6.494168 20.467701 3.693311 -0.759355 57.630113 -1.063752 13.923909 -9.714676 27.548160 14.643098 6.160214 -1.096953 -9.803241 
-1.795545 -0.110680 0.982671 -133.914264 -6.689826 83.406819 5.791713 2.193353 -11.132968 -11.797348 4.129815 68.297444 -6.197633 4.232113 6.280446 0.000000 -0.000000 0.000000 10.742180 -1.860060 -4.233742 -5.129874 -9.102744 5.616658 -7.146993 -14.981204 -13.033403 0.000000 -0.000000 0.000000 -5.616996 0.670931 11.428569 0.026961 -4.686582 1.964123 -2.150334 -1.331355 2.347723 5.101304 -14.933274 -5.734861 10.293814 -20.146414 -2.411731 -22.604979 -1.731434 2.116749 -50.638935 -8.832169 7.818211 5.812929 -23.504973 12.140133 -0.290445 1.314785 -6.453529 21.339735 6.225134 -0.428657 57.859512 1.837147 14.547412 -9.553830 22.558532 14.179423 1.388617 -0.610851 -8.133431 
-1.809938 -0.095225 0.986271 -141.482615 -7.383295 83.511187 5.316560 0.842197 -14.175637 -9.615224 5.388714 70.272621 -4.018840 5.678976 1.755896 0.000000 -0.000000 0.000000 10.508472 -1.573782 -1.138807 -4.841085 -5.377322 5.061483 -5.849615 -12.550638 -14.272691 0.000000 -0.000000 0.000000 -5.756165 3.062792 12.011294 -0.242324 -3.438802 1.563896 -1.943062 -0.158097 2.696635 4.581177 -14.185132 -5.454064 9.741317 -19.713563 -1.941915 -23.298296 -1.108843 1.646199 -52.455454 -6.593953 7.523605 5.406855 -19.863816 10.541384 -0.572217 1.880557 -6.154937 22.142633 7.304215 -0.017981 57.390564 3.273327 14.683990 -9.913563 24.474644 13.880057 1.735037 -1.081535 -5.809059 
